<svg width="3031" height="3031" xmlns="http://www.w3.org/2000/svg"><rect x="0" y="0" width="3031" height="3031" style="fill: black;"></rect><rect x="980" y="770" width="10" height="10" style="fill: white;"></rect><rect x="2830" y="240" width="10" height="10" style="fill: white;"></rect><rect x="510" y="180" width="10" height="10" style="fill: white;"></rect><rect x="1780" y="350" width="10" height="10" style="fill: white;"></rect><rect x="2420" y="770" width="10" height="10" style="fill: white;"></rect><rect x="900" y="610" width="10" height="10" style="fill: white;"></rect><rect x="520" y="70" width="10" height="10" style="fill: white;"></rect><rect x="870" y="300" width="10" height="10" style="fill: white;"></rect><rect x="450" y="860" width="10" height="10" style="fill: white;"></rect><rect x="1200" y="250" width="10" height="10" style="fill: white;"></rect><rect x="1910" y="180" width="10" height="10" style="fill: white;"></rect><rect x="150" y="360" width="10" height="10" style="fill: white;"></rect><rect x="2410" y="2140" width="10" height="10" style="fill: white;"></rect><rect x="2300" y="610" width="10" height="10" style="fill: white;"></rect><rect x="1920" y="70" width="10" height="10" style="fill: white;"></rect><rect x="2270" y="300" width="10" height="10" style="fill: white;"></rect><rect x="2900" y="240" width="10" height="10" style="fill: white;"></rect><rect x="580" y="180" width="10" height="10" style="fill: white;"></rect><rect x="1850" y="350" width="10" height="10" style="fill: white;"></rect><rect x="560" y="860" width="10" height="10" style="fill: white;"></rect><rect x="970" y="610" width="10" height="10" style="fill: white;"></rect><rect x="590" y="70" width="10" height="10" style="fill: white;"></rect><rect x="940" y="300" width="10" height="10" style="fill: white;"></rect><rect x="100" y="180" width="10" height="10" style="fill: white;"></rect><rect x="2500" y="240" width="10" height="10" style="fill: white;"></rect><rect x="1310" y="250" width="10" height="10" style="fill: white;"></rect><rect x="2700" y="240" width="10" height="10" style="fill: white;"></rect><rect x="110" y="70" width="10" height="10" style="fill: white;"></rect><rect x="2460" y="240" width="10" height="10" style="fill: white;"></rect><rect x="180" y="180" width="10" height="10" style="fill: white;"></rect><rect x="2020" y="180" width="10" height="10" style="fill: white;"></rect><rect x="380" y="180" width="10" height="10" style="fill: white;"></rect><rect x="60" y="70" width="10" height="10" style="fill: white;"></rect><rect x="140" y="180" width="10" height="10" style="fill: white;"></rect><rect x="260" y="360" width="10" height="10" style="fill: white;"></rect><rect x="1650" y="350" width="10" height="10" style="fill: white;"></rect><rect x="190" y="70" width="10" height="10" style="fill: white;"></rect><rect x="540" y="300" width="10" height="10" style="fill: white;"></rect><rect x="2410" y="610" width="10" height="10" style="fill: white;"></rect><rect x="2030" y="70" width="10" height="10" style="fill: white;"></rect><rect x="2380" y="300" width="10" height="10" style="fill: white;"></rect><rect x="390" y="70" width="10" height="10" style="fill: white;"></rect><rect x="740" y="300" width="10" height="10" style="fill: white;"></rect><rect x="150" y="70" width="10" height="10" style="fill: white;"></rect></svg>